<?xml version="1.0" encoding="UTF-8"?>
<svg id="Camada_2" data-name="Camada 2" xmlns="http://www.w3.org/2000/svg" viewBox="0 0 287.27 286.44">
  <defs>
    <style>
      .cls-1 {
        stroke-width: 0px;
      }
    </style>
  </defs>
  <g id="Camada_1-2" data-name="Camada 1">
    <g>
      <path class="cls-1" d="m75.95,285.37c-27.53-1.79-49.89-13.47-64.21-37.94C3.73,233.76.4,218.6.28,202.95,0,162.96-.21,122.97.38,82.98c.31-21.09,6.2-40.67,20.88-56.85C34.71,11.29,51.89,4.1,71.22,1.61,80.77.39,90.49-.01,100.13,0c35.99.06,72-.24,107.96.94,23.43.77,44.13,9.41,59.52,28.17,10.94,13.33,16.62,28.9,17.57,45.85,2.57,45.62,3.01,91.32-.13,136.89-2.12,30.81-17.08,54.2-46.17,67.02-14.46,6.37-29.98,7.37-45.5,7.57l-117.44-1.07Zm-5.78-257.79c-18.76,2.44-32.36,12.85-39.65,30.89-4.29,10.62-4.89,21.78-5.05,32.88-.42,30.15-.46,60.31-.22,90.46.09,11.63.49,23.38,2.26,34.85,2.75,17.91,12.37,31.36,29.51,38.6,11.91,5.03,24.62,5.77,37.26,5.9,30.15.32,60.31.44,90.46.1,10.97-.12,22.04-.99,32.88-2.72,20.77-3.31,37.11-19.36,40.77-40.08,1.54-8.69,2.54-17.58,2.65-26.4.37-30.15.48-60.31.13-90.46-.13-11.27-.99-22.66-2.89-33.76-3.78-22.14-20.49-38.4-42.94-40.39l-145.18.14Z"/>
      <path class="cls-1" d="m216.79,143.25c-.21,40.6-33.66,73.8-73.98,73.43-40.84-.38-73.55-33.44-73.3-74.1.24-40.52,33.25-73.28,73.73-73.18,40.69.1,73.76,33.31,73.55,73.86Zm-73.46-48.46c-26.68-.19-48.27,21.24-48.43,48.07-.15,26.45,21.16,48.17,47.57,48.48,26.81.31,48.89-21.38,48.98-48.12.1-26.69-21.31-48.23-48.13-48.42Z"/>
      <path class="cls-1" d="m219.78,83.16c-8.97-.05-16.74-7.96-16.74-17.02,0-9.34,7.91-17.1,17.27-16.95,9.1.15,16.86,7.99,16.82,16.98-.04,9.18-8.08,17.04-17.35,16.99Z"/>
    </g>
  </g>
</svg>