<?xml version="1.0" encoding="utf-8"?>
<!-- Generator: Adobe Illustrator 27.8.0, SVG Export Plug-In . SVG Version: 6.00 Build 0)  -->
<svg version="1.1" id="Camada_2_00000167358185235456594600000009745026896298973335_"
	 xmlns="http://www.w3.org/2000/svg" xmlns:xlink="http://www.w3.org/1999/xlink" x="0px" y="0px" viewBox="0 0 468.2 414.2"
	 style="enable-background:new 0 0 468.2 414.2;" xml:space="preserve">
<style type="text/css">
	.st0{fill:none;stroke:#000000;stroke-width:1;stroke-miterlimit:9.9997;}
	.st1{fill:#50D890;}
	.st2{stroke:#FFFFFF;stroke-width:3;stroke-miterlimit:10;}
	.st3{fill:none;stroke:#000000;stroke-miterlimit:10;}
	.st4{stroke:#000000;stroke-miterlimit:10;}
	.st5{fill:#50D890;stroke:#000000;stroke-miterlimit:10;}
	.st6{fill:#FFFFFF;stroke:#000000;stroke-miterlimit:10;}
	.st7{fill:#FFFFFF;}
	.st8{fill:none;stroke:#FFFFFF;stroke-width:2;stroke-linecap:round;stroke-linejoin:round;}
	.st9{stroke:#FFFFFF;stroke-miterlimit:10;}
	.st10{fill:#FFFFFF;stroke:#FFFFFF;stroke-miterlimit:10;}
	.st11{fill:none;stroke:#50D890;stroke-width:2;stroke-linecap:square;stroke-miterlimit:10;}
</style>
<ellipse transform="matrix(0.6598 -0.7514 0.7514 0.6598 -132.1664 189.6815)" class="st0" cx="143.4" cy="240.8" rx="45.5" ry="145.4"/>
<ellipse transform="matrix(0.6598 -0.7514 0.7514 0.6598 -108.243 193.4953)" class="st0" cx="159.6" cy="216.3" rx="45.5" ry="145.4"/>
<ellipse transform="matrix(0.6598 -0.7514 0.7514 0.6598 -150.1492 184.2046)" class="st0" cx="128.4" cy="257.9" rx="45.5" ry="145.4"/>
<g id="Camada_1-2">
	<g>
		<g>
			<circle cx="308.6" cy="33.4" r="33.4"/>
			<circle cx="49.8" cy="351.1" r="33.4"/>
			<circle cx="20.6" cy="108.3" r="20.6"/>
			<circle class="st1" cx="16.4" cy="169.8" r="8.6"/>
			<circle class="st1" cx="421.2" cy="405.6" r="8.6"/>
			<polygon class="st2" points="325.7,16.3 312.7,33.4 312.7,50.5 304.5,44.5 304.5,33.4 291.5,16.3 			"/>
		</g>
		<g>
			<g>
				<path class="st3" d="M290.4,161.7c-11.6-41.3-34-71.2-50-66.7c-2.3,0.7-4.4,2-6.2,4l0,0c-10.4,11.5-11.5,43.7-1.6,79
					s27.7,62.2,42.6,66.5l0,0c2.6,0.7,5,0.8,7.4,0.2C298.5,240.1,302,203,290.4,161.7L290.4,161.7z M243.3,192.3
					c-2-5-3.8-10.3-5.4-15.9c-1.4-4.9-2.5-9.7-3.4-14.3l22.7-5.2c-4,1.3-5.3,8.2-2.9,15.3c2.4,7.1,7.5,11.8,11.5,10.4L243.3,192.3
					L243.3,192.3z"/>
				<path class="st3" d="M234.6,162.2c-5.1-27.7-1.4-50.3,9.7-53.5c5.2-1.5,11.3,1.6,17.2,7.9"/>
				<path class="st3" d="M267.1,123.4c7,9.8,13.5,23.7,18,39.8c9.5,33.8,6.7,64.1-6.4,67.8c-10.9,3.1-25.4-13.4-35.5-38.6"/>
				<path class="st4" d="M86.8,193.8l13.2,46.8l-12.6,3.6c-5,1.4-12-7.9-15.7-20.9s-2.6-24.6,2.4-26L86.8,193.8L86.8,193.8z"/>
				<path class="st4" d="M113.5,249.1l24.3-9.4l28.9,74.4c2.6,6.7-0.7,14.3-7.4,16.9l0,0c-6.7,2.6-14.3-0.7-16.9-7.4L113.5,249.1
					L113.5,249.1L113.5,249.1z"/>
				<path class="st5" d="M172.4,242L110,259.6c-9.3,2.6-22.3-14.8-29.1-38.8s-4.8-45.7,4.5-48.3l62.4-17.6
					c-9.3,2.6-11.3,24.3-4.5,48.3S163.1,244.6,172.4,242L172.4,242z"/>
				<path class="st6" d="M275.2,244.5L172.4,242c-9.3,2.6-22.3-14.8-29.1-38.8s-4.8-45.7,4.5-48.3L234.2,99
					c-10.4,11.5-11.5,43.7-1.6,79C242.6,213.2,260.3,240.1,275.2,244.5L275.2,244.5z"/>
			</g>
			<path class="st5" d="M265.8,182.7c-4,1.3-9.1-3.4-11.5-10.4c-2.4-7.1-1.1-13.9,2.9-15.3c4-1.3,9.1,3.4,11.5,10.5
				C271.1,174.5,269.8,181.3,265.8,182.7L265.8,182.7z"/>
			<path class="st4" d="M265.8,182.7l-22.5,9.7c-2-5-3.8-10.3-5.4-15.9c-1.4-4.9-2.5-9.7-3.4-14.3l22.7-5.2c-4,1.3-5.3,8.2-2.9,15.3
				C256.7,179.3,261.8,184,265.8,182.7z"/>
		</g>
		<g>
			<circle class="st1" cx="434.8" cy="113.4" r="33.4"/>
			<path class="st7" d="M432.7,133.6v-5.4c-3.1-0.1-6.3-1-8.1-2.3l1.3-3.6c1.9,1.3,4.7,2.3,7.7,2.3c3.8,0,6.3-2.2,6.3-5.2
				s-2.1-4.7-6-6.3c-5.4-2.1-8.8-4.6-8.8-9.2s3.1-7.8,8-8.6v-5.4h3.3v5.2c3.2,0.1,5.4,1,6.9,1.9l-1.3,3.5c-1.1-0.6-3.3-1.8-6.7-1.8
				c-4.1,0-5.6,2.4-5.6,4.6c0,2.8,2,4.2,6.6,6.1c5.5,2.2,8.3,5,8.3,9.8c0,4.2-2.9,8.2-8.4,9.1v5.5h-3.5V133.6z"/>
		</g>
		<g>
			<circle cx="401.4" cy="240.9" r="33.4"/>
			<g>
				<path class="st8" d="M383.4,230.5c3.2-6.7,10-11.4,18-11.4c11,0,19.8,8.9,19.8,19.8"/>
				<polygon class="st7" points="389.9,230.3 381.5,238.9 378.4,227.3 				"/>
			</g>
			<g>
				<path class="st8" d="M419.3,251.3c-3.2,6.7-10,11.4-18,11.4c-11,0-19.8-8.9-19.8-19.8"/>
				<polygon class="st7" points="412.8,251.4 421.2,242.9 424.4,254.4 				"/>
			</g>
		</g>
		<g>
			<path class="st1" d="M342.1,351.1c0,8.8-3.4,16.8-9,22.8c-0.9-12.7-11.5-22.8-24.4-22.8s-23.5,10.1-24.4,22.8c-5.6-6-9-14-9-22.8
				c0-18.4,15-33.4,33.4-33.4S342.1,332.7,342.1,351.1L342.1,351.1z"/>
			<path class="st7" d="M333.1,373.9c-6.1,6.5-14.8,10.6-24.4,10.6s-18.3-4.1-24.4-10.6c0.9-12.7,11.5-22.8,24.4-22.8
				S332.3,361.2,333.1,373.9z"/>
			<circle class="st7" cx="308.7" cy="335.2" r="12"/>
		</g>
		<circle class="st9" cx="49.8" cy="351.1" r="25.9"/>
		<circle class="st9" cx="49.8" cy="351.1" r="17.8"/>
		<circle class="st9" cx="49.8" cy="351.1" r="8.7"/>
		<circle class="st10" cx="49.8" cy="351.1" r="3.8"/>
		<g>
			<line class="st11" x1="81.4" y1="337.6" x2="56.5" y2="348.3"/>
			<polygon class="st1" points="80.8,338.2 86.8,339.1 92.7,336.6 88.1,334.7 89.9,330.1 84.1,332.6 80.5,337.6 			"/>
			<polygon class="st1" points="57.1,345.4 49.8,351.1 58.9,349.8 			"/>
		</g>
	</g>
</g>
</svg>
