<?xml version="1.0" encoding="UTF-8"?>
<svg id="Camada_2" data-name="Camada 2" xmlns="http://www.w3.org/2000/svg" viewBox="0 0 285.13 286.44">
  <defs>
    <style>
      .cls-1 {
        stroke-width: 0px;
      }
    </style>
  </defs>
  <g id="Camada_1-2" data-name="Camada 1">
    <g>
      <path class="cls-1" d="m0,286.44c1.37-5.11,2.58-9.76,3.85-14.38,4.85-17.67,9.52-35.4,14.72-52.97,1.4-4.74.4-8.33-1.75-12.34-6.47-12.09-10.68-24.96-13.24-38.45-2.49-13.11-3.16-26.3-1.89-39.51,1.89-19.71,7.62-38.31,17.28-55.68,7.7-13.83,17.48-25.99,29.19-36.56,15.96-14.41,34.3-24.57,54.94-30.78C119.73.76,136.7-.84,153.85.4c27.16,1.96,51.85,11.13,73.76,27.44,16.12,12,29.23,26.69,39.15,44.18,7.24,12.77,12.28,26.36,15.4,40.72,2.82,12.97,3.46,26.1,2.64,39.23-1.04,16.83-5.21,32.99-12.19,48.4-8.27,18.23-19.9,34.01-34.74,47.39-14.31,12.9-30.61,22.49-48.87,28.7-9.4,3.19-19.03,5.33-28.91,6.56-10.2,1.27-20.38,1.51-30.55.47-17.38-1.79-34.11-6.22-49.61-14.41-3.77-1.99-6.99-1.85-10.73-.83-13.87,3.76-27.78,7.38-41.67,11.05-8.58,2.27-17.15,4.52-25.73,6.78-.4.11-.81.17-1.78.37Zm33.74-33.5c3.62-.92,6.66-1.69,9.7-2.48,10.17-2.63,20.37-5.14,30.47-8,3.12-.88,5.56-.83,8.43.93,14.49,8.86,30.31,14.09,47.13,16.14,9.9,1.21,19.81.99,29.75-.42,10.32-1.47,20.29-4.06,29.83-8.15,20.6-8.83,37.43-22.41,50.48-40.66,12.24-17.11,19.27-36.23,21.32-57.06,1.3-13.21.44-26.44-2.85-39.39-6.98-27.51-21.87-49.91-44.57-66.84-19.33-14.42-41.22-22.14-65.45-23-11.21-.4-22.3.48-33.17,3.22-12.99,3.26-25.16,8.5-36.34,15.93-20.3,13.5-35.31,31.39-44.66,53.93-4.79,11.55-7.45,23.57-8.54,36.07-1.06,12.04.09,23.83,2.67,35.51,3.08,13.97,8.91,26.81,16.59,38.86.72,1.13.9,3.02.55,4.34-3.61,13.44-7.39,26.85-11.34,41.06Z"/>
      <path class="cls-1" d="m71.13,110.15c-.23-12.17,4.61-22.11,13.38-30.3,2.35-2.2,5.2-3.38,8.44-3.45,2.16-.05,4.33.13,6.49.03,3.46-.16,5.87,1.34,7.19,4.44,4.13,9.68,8.28,19.35,12.2,29.12,1.65,4.1-.9,7.35-3.18,10.4-1.86,2.49-3.98,4.78-6.02,7.14-2.77,3.2-3.13,4.39-.77,7.78,4.13,5.95,8.26,11.96,12.99,17.42,9.63,11.13,21.78,18.81,35.34,24.35,3.8,1.55,5.69,1,8.32-2.31,3.33-4.2,6.66-8.4,10.03-12.56,2.41-2.97,3.91-3.6,7.42-1.99,10.05,4.59,20.02,9.36,29.9,14.31,1.17.59,2.15,2.75,2.19,4.21.38,12.91-5.42,21.96-17.16,27.55-10.9,5.19-21.8,4.91-32.96,1.34-12.13-3.88-23.9-8.5-34.61-15.55-11.06-7.27-21.09-15.79-29.62-25.86-6.8-8.03-13.1-16.52-19.18-25.12-5.13-7.24-8.35-15.47-10.01-24.22-.41-2.19-.28-4.49-.39-6.73Z"/>
    </g>
  </g>
</svg>